HIERARCHY
ROOT Hips
{
	OFFSET -0.001795 -0.223333 0.028219
	CHANNELS 6 Xposition Yposition Zposition Zrotation Yrotation Xrotation 
	JOINT LeftUpLeg
	{
		OFFSET 0.069520 -0.091406 -0.006815
		CHANNELS 3 Zrotation Yrotation Xrotation
		JOINT LeftLeg
		{
			OFFSET 0.034277 -0.375199 -0.004496
			CHANNELS 3 Zrotation Yrotation Xrotation
			JOINT LeftFoot
			{
				OFFSET -0.013596 -0.397961 -0.043693
				CHANNELS 3 Zrotation Yrotation Xrotation
				JOINT LeftToe
				{
					OFFSET 0.026358 -0.055791 0.119288
					CHANNELS 3 Zrotation Yrotation Xrotation
					End Site
					{
						OFFSET 0.000000 0.000000 0.000000
					}
				}
			}
		}
	}
	JOINT RightUpLeg
	{
		OFFSET -0.067670 -0.090522 -0.004320
		CHANNELS 3 Zrotation Yrotation Xrotation
		JOINT RightLeg
		{
			OFFSET -0.038290 -0.382569 -0.008850
			CHANNELS 3 Zrotation Yrotation Xrotation
			JOINT RightFoot
			{
				OFFSET 0.015774 -0.398415 -0.042312
				CHANNELS 3 Zrotation Yrotation Xrotation
				JOINT RightToe
				{
					OFFSET -0.025372 -0.048144 0.123348
					CHANNELS 3 Zrotation Yrotation Xrotation
					End Site
					{
						OFFSET 0.000000 0.000000 0.000000
					}
				}
			}
		}
	}
	JOINT Spine
	{
		OFFSET -0.002533 0.108963 -0.026696
		CHANNELS 3 Zrotation Yrotation Xrotation
		JOINT Spine1
		{
			OFFSET 0.005487 0.135180 0.001092
			CHANNELS 3 Zrotation Yrotation Xrotation
			JOINT Spine2
			{
				OFFSET 0.001457 0.052922 0.025425
				CHANNELS 3 Zrotation Yrotation Xrotation
				JOINT Neck
				{
					OFFSET -0.002778 0.213870 -0.042857
					CHANNELS 3 Zrotation Yrotation Xrotation
					JOINT Head
					{
						OFFSET 0.005152 0.064970 0.051349
						CHANNELS 3 Zrotation Yrotation Xrotation
						End Site
						{
							OFFSET 0.000000 0.000000 0.000000
						}
					}
				}
				JOINT LeftShoulder
				{
					OFFSET 0.078845 0.121749 -0.034090
					CHANNELS 3 Zrotation Yrotation Xrotation
					JOINT LeftArm
					{
						OFFSET 0.090977 0.030469 -0.008868
						CHANNELS 3 Zrotation Yrotation Xrotation
						JOINT LeftForeArm
						{
							OFFSET 0.259612 -0.012772 -0.027456
							CHANNELS 3 Zrotation Yrotation Xrotation
							JOINT LeftHand
							{
								OFFSET 0.249234 0.008986 -0.001171
								CHANNELS 3 Zrotation Yrotation Xrotation
								End Site
								{
									OFFSET 0.000000 0.000000 0.000000
								}
							}
						}
					}
				}
				JOINT RightShoulder
				{
					OFFSET -0.081759 0.118833 -0.038615
					CHANNELS 3 Zrotation Yrotation Xrotation
					JOINT RightArm
					{
						OFFSET -0.096012 0.032551 -0.009143
						CHANNELS 3 Zrotation Yrotation Xrotation
						JOINT RightForeArm
						{
							OFFSET -0.253742 -0.013329 -0.021401
							CHANNELS 3 Zrotation Yrotation Xrotation
							JOINT RightHand
							{
								OFFSET -0.255298 0.007772 -0.005559
								CHANNELS 3 Zrotation Yrotation Xrotation
								End Site
								{
									OFFSET 0.000000 0.000000 0.000000
								}
							}
						}
					}
				}
			}
		}
	}
}
MOTION
Frames: 13
Frame Time: 0.050000
0.000000 0.716408 0.000000 -1.240162 -14.996764 7.837749 12.651817 5.140830 -50.493288 -7.854243 11.106205 76.757755 12.294550 25.345622 -9.750409 0.000000 0.000000 0.000000 -12.215534 3.820438 -50.263479 21.944441 -11.389365 79.383639 -8.129518 -22.369369 -26.146583 0.000000 0.000000 0.000000 4.134557 -1.051439 37.950572 -1.470570 0.587991 -5.141981 -5.935302 7.173648 2.146306 11.870056 -4.577714 -21.279583 0.000000 0.000000 0.000000 -15.373296 -31.362893 14.282099 -35.843671 -33.813408 5.578394 3.423379 -41.727627 0.267847 0.000000 0.000000 0.000000 10.389436 21.713272 9.634426 49.321077 22.715251 4.638181 1.041657 44.233829 2.248412 0.000000 0.000000 0.000000 
-0.000386 0.752873 -0.000280 -1.149819 -13.566483 8.125063 10.505480 3.168094 -47.512946 -6.602984 8.156983 68.710515 13.175198 26.652702 -4.339072 0.000000 0.000000 0.000000 -12.090766 3.434772 -49.698091 22.127919 -11.626821 75.916418 -8.940277 -24.084162 -15.349049 0.000000 0.000000 0.000000 4.678263 -1.498383 35.275655 -1.340722 0.553325 -4.779025 -5.974772 8.005176 0.086420 12.922923 -5.012788 -20.831076 0.000000 0.000000 0.000000 -13.330961 -31.063951 13.282474 -36.196791 -35.284991 6.311650 0.223988 -51.435671 1.610559 0.000000 0.000000 0.000000 10.721471 18.537481 8.368313 48.596274 20.103235 3.652866 7.649319 52.475256 6.163001 0.000000 0.000000 0.000000 
-0.001093 0.790392 0.000821 -0.686046 -13.506147 6.988037 10.567853 2.462259 -41.324904 -7.788884 8.200096 60.879098 10.804087 21.852468 -4.109271 0.000000 0.000000 0.000000 -9.354934 3.652514 -43.566017 17.762988 -6.274587 69.207969 -8.479747 -21.634224 -14.619125 0.000000 0.000000 0.000000 3.879253 -1.235618 31.734369 -0.913144 0.370090 -4.649494 -6.781505 9.604076 0.222686 12.782890 -5.409375 -18.229048 0.000000 0.000000 0.000000 -13.039860 -31.176746 12.841961 -34.541530 -34.177372 5.643250 -3.790298 -64.179614 4.093270 0.000000 0.000000 0.000000 13.337250 18.021964 8.810484 47.752750 19.796721 3.242711 12.222843 60.265932 10.410733 0.000000 0.000000 0.000000 
-0.001772 0.827913 0.002231 -0.277223 -14.292770 6.703806 9.254322 1.490447 -35.645804 -6.959980 6.437035 51.370377 9.593682 19.289924 -0.349546 0.000000 0.000000 0.000000 -7.461264 3.824765 -39.822087 14.110213 -2.659931 62.305318 -8.161357 -20.182016 -9.062775 0.000000 0.000000 0.000000 3.798517 -1.138329 27.563551 -0.623203 0.223428 -5.990480 -6.412036 11.220161 2.506786 13.259792 -4.918138 -21.890022 0.000000 0.000000 0.000000 -4.991305 -27.501860 9.839190 -38.049175 -37.312395 6.952310 -17.717961 -80.588015 16.902488 0.000000 0.000000 0.000000 8.700014 15.796834 7.138032 51.770099 21.304759 4.366338 24.782075 72.463056 23.340486 0.000000 0.000000 0.000000 
-0.002510 0.862369 0.003941 0.224752 -13.432847 6.914197 7.227639 0.346043 -30.410368 -5.727541 4.031505 40.565122 9.332930 18.685421 4.402005 0.000000 0.000000 0.000000 -5.984126 3.263161 -33.646157 9.287198 0.154253 51.719610 -7.290564 -17.019048 -8.104202 0.000000 0.000000 0.000000 4.528455 -1.298196 21.964602 -1.614696 0.670089 -4.064313 -4.988025 9.572134 2.803005 11.478548 -4.525840 -19.967479 0.000000 0.000000 0.000000 -1.171836 -25.027671 8.630743 -35.547793 -37.403480 6.312318 -167.269711 -82.636583 168.823389 0.000000 0.000000 0.000000 5.497175 15.926460 6.489762 54.546956 22.423748 5.394665 56.389208 82.489068 56.029267 0.000000 0.000000 0.000000 
-0.002725 0.890454 0.005698 0.212721 -12.396152 8.322537 5.501614 -0.388077 -25.646516 -3.781981 1.812934 29.242466 8.860190 17.856415 6.586406 0.000000 0.000000 0.000000 -5.446510 2.761458 -29.389637 6.660252 0.762896 42.097456 -6.161085 -13.864320 -6.251791 0.000000 0.000000 0.000000 5.028054 -1.315554 17.661108 -0.935895 0.374494 -5.372748 -3.943568 11.039350 4.592209 10.475188 -4.053074 -19.039650 0.000000 0.000000 0.000000 1.084405 -22.467097 7.436596 -32.397709 -39.532263 5.824402 -177.175600 -66.580820 179.608860 0.000000 0.000000 0.000000 3.224533 13.292835 5.292293 55.848250 22.178450 5.517717 132.673658 79.396831 132.470560 0.000000 0.000000 0.000000 
-0.002424 0.913744 0.006470 0.141809 -10.426551 8.313804 4.659052 -0.711664 -21.510799 -2.516760 0.749943 22.234648 6.746337 14.330652 8.497625 0.000000 0.000000 0.000000 -4.317708 2.324181 -24.991817 3.706860 1.238166 34.466801 -4.968211 -11.818357 -2.255204 0.000000 0.000000 0.000000 5.863248 -1.270194 13.500568 -0.292570 0.131945 -5.602492 -3.241896 11.273852 5.143898 10.732567 -4.421323 -17.635928 0.000000 0.000000 0.000000 4.272756 -20.220907 6.494821 -28.163461 -41.408888 4.912397 173.819226 -56.945394 -164.388751 0.000000 0.000000 0.000000 2.737733 11.926472 4.740508 54.265386 23.795310 6.115104 153.812256 77.705568 157.241860 0.000000 0.000000 0.000000 
-0.001245 0.930359 0.006234 0.063193 -8.400239 9.227430 4.227354 -0.862479 -19.675172 -1.819479 0.274003 17.517627 4.967540 11.534005 9.590327 0.000000 0.000000 0.000000 -3.174098 2.028249 -21.536361 0.935567 1.452862 26.786742 -4.094907 -10.644604 0.754260 0.000000 0.000000 0.000000 5.756023 -1.053880 9.976968 0.762257 -0.271170 -5.335543 -2.383321 11.355361 5.065649 9.789538 -3.960921 -16.587686 0.000000 0.000000 0.000000 7.749054 -18.804451 6.004343 -21.120054 -44.480702 3.150774 162.159171 -52.094094 -140.489457 0.000000 0.000000 0.000000 1.186187 11.772413 4.571361 53.566063 25.182094 6.851400 170.953007 76.249838 179.192051 0.000000 0.000000 0.000000 
0.000339 0.940063 0.005920 0.156507 -6.430030 8.848468 3.945143 -0.926964 -17.934751 -1.024864 -0.040990 15.030646 2.630929 7.873695 10.436637 0.000000 0.000000 0.000000 -2.389387 1.805633 -19.115472 -0.687949 1.482856 22.361385 -4.174698 -12.081276 5.150578 0.000000 0.000000 0.000000 5.914922 -0.953572 8.365618 0.632597 -0.196817 -5.396820 -0.844144 11.396250 4.975275 9.417877 -3.771972 -16.022139 0.000000 0.000000 0.000000 11.099532 -18.417451 5.889975 -11.664101 -46.521608 0.039679 151.084492 -49.141589 -118.198538 0.000000 0.000000 0.000000 0.608493 11.584421 4.455807 50.061119 26.241250 6.738637 -176.687862 78.002539 -164.955420 0.000000 0.000000 0.000000 
0.002290 0.944762 0.006260 0.273546 -5.038753 8.901365 3.312334 -1.024603 -17.129967 0.767089 -0.488163 12.786524 0.153571 4.308542 12.268236 0.000000 0.000000 0.000000 -1.670760 1.609358 -16.764579 -2.489410 1.541909 17.742645 -4.264006 -12.734702 7.487275 0.000000 0.000000 0.000000 5.536939 -0.745201 6.201643 1.439676 -0.521268 -4.939769 -0.368502 11.516815 4.527367 8.957257 -3.518623 -15.436484 0.000000 0.000000 0.000000 14.143711 -18.522543 5.953946 -4.105910 -45.810982 -2.652353 145.513160 -47.900356 -108.185839 0.000000 0.000000 0.000000 1.032462 12.781298 5.020007 47.515384 26.677054 6.420386 -155.289357 82.901170 -141.706717 0.000000 0.000000 0.000000 
0.004397 0.947387 0.007352 0.023063 -4.448788 8.438613 2.981633 -1.012211 -15.786858 2.346454 -0.784299 10.914731 -1.542422 2.022680 13.662738 0.000000 0.000000 0.000000 -1.094112 1.430522 -14.608654 -3.162234 1.381854 14.095975 -4.606835 -13.867814 10.076348 0.000000 0.000000 0.000000 5.808660 -0.692550 5.402268 1.031648 -0.361535 -4.436207 0.669014 11.878833 4.400406 8.912908 -3.672960 -14.340608 0.000000 0.000000 0.000000 17.087692 -18.569932 5.987414 0.762910 -44.698199 -4.292199 142.334247 -46.714923 -102.178939 0.000000 0.000000 0.000000 0.336476 13.047538 5.038535 46.699531 26.036211 6.049912 -87.214276 86.387170 -74.140063 0.000000 0.000000 0.000000 
0.006409 0.949386 0.008602 0.113703 -3.742401 8.187359 2.519913 -1.001992 -14.440569 3.464187 -0.892287 8.458587 -3.257420 -0.050826 15.318630 0.000000 0.000000 0.000000 -0.965035 1.186942 -12.165572 -3.881110 1.182745 10.090364 -4.628224 -14.077486 11.570248 0.000000 0.000000 0.000000 5.547251 -0.573009 4.290540 1.099252 -0.403136 -3.725553 1.021462 11.813694 3.450494 8.198327 -3.169771 -14.378889 0.000000 0.000000 0.000000 18.648610 -18.047273 5.967444 3.276139 -44.441925 -5.139772 142.581699 -47.151947 -103.448266 0.000000 0.000000 0.000000 0.502514 13.116860 5.107146 46.990450 25.382003 5.877296 -27.955110 82.412575 -16.149960 0.000000 0.000000 0.000000 
0.008105 0.951033 0.009569 0.103681 -3.445357 7.933281 2.065340 -0.995573 -13.532859 4.090023 -0.941502 7.353771 -3.508609 -0.269872 15.672081 0.000000 0.000000 0.000000 -0.888073 1.047169 -10.730753 -4.169986 1.024038 7.618538 -4.785671 -14.601301 13.374869 0.000000 0.000000 0.000000 5.454721 -0.498814 3.557700 0.829412 -0.290106 -3.568627 1.669571 11.607839 3.114693 7.903903 -3.104030 -13.836331 0.000000 0.000000 0.000000 19.167068 -17.829421 5.918533 5.003515 -43.598779 -5.523514 142.749441 -46.819830 -103.149902 0.000000 0.000000 0.000000 0.181608 13.345161 5.133084 47.443047 24.188538 5.476355 -15.463023 79.248082 -5.099706 0.000000 0.000000 0.000000 
